<?xml version="1.0" encoding="UTF-8" standalone="no"?>
<svg width="35px" height="35px" viewBox="0 0 35 35" version="1.1" xmlns="http://www.w3.org/2000/svg" xmlns:xlink="http://www.w3.org/1999/xlink">
    <!-- Generator: Sketch 3.7 (28169) - http://www.bohemiancoding.com/sketch -->
    <title>Combined Shape</title>
    <desc>Created with Sketch.</desc>
    <defs></defs>
    <g id="Page-1" stroke="none" stroke-width="1" fill="none" fill-rule="evenodd">
        <path d="M0.00238671823,17.6774554 C0.0463314819,22.0977838 1.75467015,26.5046381 5.12740272,29.8773707 C8.50013529,33.2501033 12.9069897,34.958442 17.327318,35.0023867 C17.4609775,30.5208326 19.2380815,26.0791786 22.65863,22.65863 C26.0791786,19.2380815 30.5208326,17.4609775 35.0023867,17.327318 C34.958442,12.9069897 33.2501033,8.50013529 29.8773707,5.12740272 C26.5046381,1.75467015 22.0977838,0.0463314819 17.6774554,0.00238671823 C17.5437959,4.48394089 15.7666919,8.92559489 12.3461434,12.3461434 C8.92559489,15.7666919 4.48394089,17.5437959 0.00238671823,17.6774554 L0.00238671823,17.6774554 L0.00238671823,17.6774554 Z M18.7879936,34.9562635 C22.8292099,34.6603938 26.7873119,32.9674295 29.8773707,29.8773707 C32.9674295,26.7873119 34.6603938,22.8292099 34.9562635,18.7879936 C30.8637699,18.9318781 26.813917,20.5658404 23.6898787,23.6898787 C20.5658404,26.813917 18.9318781,30.8637699 18.7879917,34.9562637 L18.7879936,34.9562635 L18.7879936,34.9562635 L18.7879936,34.9562635 Z M0.0485098901,16.2167798 C0.344379644,12.1755636 2.03734392,8.21746152 5.12740272,5.12740272 C8.21746152,2.03734392 12.1755636,0.344379644 16.2167798,0.0485098901 C16.0728954,4.14100358 14.438933,8.19085641 11.3148947,11.3148947 C8.19085641,14.438933 4.14100358,16.0728954 0.0485097583,16.2167817 L0.0485098901,16.2167798 L0.0485098901,16.2167798 L0.0485098901,16.2167798 Z" id="Combined-Shape" fill="#FFFFFF"></path>
    </g>
</svg>